<?xml version="1.0" encoding="utf-8"?>
<!-- Generator: Adobe Illustrator 17.0.2, SVG Export Plug-In . SVG Version: 6.00 Build 0)  -->
<!DOCTYPE svg PUBLIC "-//W3C//DTD SVG 1.1//EN" "http://www.w3.org/Graphics/SVG/1.1/DTD/svg11.dtd">
<svg version="1.1" id="Layer_1" xmlns="http://www.w3.org/2000/svg" xmlns:xlink="http://www.w3.org/1999/xlink" x="0px" y="0px"
	 width="360px" height="360px" viewBox="0 0 360 360" enable-background="new 0 0 360 360" xml:space="preserve">
<ellipse opacity="0.3" fill="#78B4C7" enable-background="new    " cx="179.038" cy="174.864" rx="175.53" ry="176.119"/>
<path id="Facebook_1_" fill="#78B4C7" d="M148.757,108.572c0,5.846,0,31.943,0,31.943h-23.323v39.06h23.323v116.07h47.913v-116.07
	h32.15c0,0,3.012-18.727,4.467-39.207c-4.184,0-36.436,0-36.436,0s0-22.725,0-26.706c0-3.99,5.224-9.359,10.387-9.359
	c5.152,0,16.03,0,26.103,0c0-5.319,0-23.695,0-40.664c-13.447,0-28.745,0-35.493,0C147.573,63.639,148.757,102.736,148.757,108.572z
	"/>
</svg>
