<?xml version="1.0" encoding="utf-8"?>
<!-- Generator: Adobe Illustrator 16.0.0, SVG Export Plug-In . SVG Version: 6.00 Build 0)  -->
<!DOCTYPE svg PUBLIC "-//W3C//DTD SVG 1.1//EN" "http://www.w3.org/Graphics/SVG/1.1/DTD/svg11.dtd">
<svg version="1.1" id="Layer_1" xmlns="http://www.w3.org/2000/svg" xmlns:xlink="http://www.w3.org/1999/xlink" x="0px" y="0px"
	 width="359.333px" height="360px" viewBox="0 0 359.333 360" enable-background="new 0 0 359.333 360" xml:space="preserve">
<rect fill="none" width="359.333" height="360"/>
<circle opacity="0.3" fill="#FFFFFF" cx="178.399" cy="180.087" r="175.833"/>
<rect x="54.535" y="66.404" fill="none" width="291.409" height="154.624"/>
<text transform="matrix(1 0 0 1 64.7754 118.8896)" fill="#FFFFFF" font-family="'Yellowtail'" font-size="78.531">Ottawa</text>
<g>
	<text transform="matrix(1 0 0 1 61.0356 163.9307)" fill="#FFFFFF" font-family="'NexaBold'" font-size="46.7446">Community</text>
</g>
<g>
	<text transform="matrix(1 0 0 1 63.8008 210.8418)" fill="#FFFFFF" font-family="'NexaBold'" font-size="46.7446">Pool</text>
</g>
<g>
	<g>
		<path fill="#4FC2AF" d="M37.361,221.994c0,0-4.11-12.318-3.181-16.534l-0.317,0.029c50.442,109.835,199.695-62.574,282.26,10.041
			c2.71,2.939,8.161,11.704,7.594,15.99c0.746-5.627-25.452-14.829-29.713-15.967c-12.683-3.375-26.006-3.387-38.944-1.682
			c-29.092,3.83-56.71,15.309-83.963,25.612c-46.113,17.429-107.558,39.512-134.046-18.163"/>
	</g>
</g>
<g>
	<path fill="#A4DBD2" d="M56.727,271.254c0,0-4.872-10.605-4.453-14.461l-0.281,0.06c55.77,93.194,172.283-75.374,253.121-18.556
		c2.707,2.361,8.431,9.659,8.343,13.544c0.116-5.1-24.183-10.764-28.1-11.362c-11.654-1.78-23.56-0.49-34.952,2.291
		c-25.613,6.261-49.167,19.21-72.507,31.071c-39.494,20.067-92.228,45.789-121.515-3.156"/>
</g>
<g>
	<path fill="#B7EDE3" d="M116.073,313.599c0,0-4.776-6.881-4.903-9.641l-0.201,0.074c51.487,58.944,118.1-73.287,183.908-42.87
		c2.254,1.343,7.282,5.797,7.657,8.538c-0.489-3.599-18.983-4.717-21.929-4.677c-8.766,0.12-17.366,2.431-25.427,5.729
		c-18.115,7.42-33.963,19.298-49.777,30.388c-26.758,18.759-62.608,43.056-89.646,12.101"/>
</g>
</svg>
