<?xml version="1.0" encoding="utf-8"?>
<!-- Generator: Adobe Illustrator 16.0.0, SVG Export Plug-In . SVG Version: 6.00 Build 0)  -->
<!DOCTYPE svg PUBLIC "-//W3C//DTD SVG 1.1//EN" "http://www.w3.org/Graphics/SVG/1.1/DTD/svg11.dtd">
<svg version="1.1" id="Layer_1" xmlns="http://www.w3.org/2000/svg" xmlns:xlink="http://www.w3.org/1999/xlink" x="0px" y="0px"
	 width="360px" height="360px" viewBox="0 0 360 360" enable-background="new 0 0 360 360" xml:space="preserve">
<path opacity="0.3" fill="#FFFFFF" d="M355.992,175.497c0,96.921-78.575,175.494-175.496,175.494
	C83.572,350.991,5,272.418,5,175.497C5,78.572,83.572,0,180.496,0C277.417,0,355.992,78.572,355.992,175.497z"/>
<path id="Twitter_2_" fill="#FFFFFF" d="M289.732,112.334c-8.488,3.759-17.598,6.305-27.168,7.449
	c9.766-5.854,17.266-15.126,20.797-26.172c-9.135,5.421-19.262,9.359-30.037,11.477c-8.631-9.188-20.922-14.935-34.527-14.935
	c-26.119,0-47.303,21.178-47.303,47.299c0,3.708,0.42,7.318,1.229,10.782c-39.312-1.973-74.167-20.805-97.499-49.421
	c-4.07,6.984-6.405,15.109-6.405,23.781c0,16.411,8.351,30.885,21.042,39.37c-7.749-0.246-15.046-2.373-21.423-5.917
	c-0.004,0.198-0.004,0.397-0.004,0.596c0,22.917,16.308,42.035,37.943,46.382c-3.969,1.076-8.149,1.661-12.46,1.661
	c-3.048,0-6.011-0.298-8.901-0.854c6.021,18.792,23.49,32.47,44.186,32.851c-16.188,12.688-36.585,20.249-58.741,20.249
	c-3.819,0-7.585-0.226-11.285-0.661c20.932,13.42,45.794,21.253,72.507,21.253c87.002,0,134.584-72.078,134.584-134.584
	c0-2.049-0.047-4.089-0.139-6.12C275.369,130.148,283.391,121.818,289.732,112.334z"/>
</svg>
